sean_semibold.sfdir

StartChar: exclam
Encoding: 33 33 1
Width: 424
Flags: MW
HStem: 0 140<189 292 189 292> 702 20G<188 291 291 291>
VStem: 189 103<0 140 0 140> 196 90<229 229>
LayerCount: 2
Fore
SplineSet
196 229 m 1xd0
 188 722 l 1
 291 722 l 1
 286 229 l 1
 196 229 l 1xd0
189 140 m 1xe0
 292 140 l 1
 292 0 l 1
 189 0 l 1
 189 140 l 1xe0
EndSplineSet
EndChar

StartChar: quotedbl
Encoding: 34 34 2
Width: 457
Flags: MW
HStem: 658 188<80 212 115 170 115 259 294 349>
VStem: 80 311<658 846>
LayerCount: 2
Fore
SplineSet
259 658 m 1
 294 846 l 1
 391 846 l 1
 349 658 l 1
 259 658 l 1
80 658 m 1
 115 846 l 1
 212 846 l 1
 170 658 l 1
 80 658 l 1
EndSplineSet
EndChar

StartChar: numbersign
Encoding: 35 35 3
Width: 668
Flags: MW
HStem: 225 69<60 77> 237 71<425 446> 445 70<206 227> 455 71<491 513>
LayerCount: 2
Fore
SplineSet
60 225 m 1x80
 77 294 l 1
 162 297 l 1
 206 445 l 1
 126 442 l 1
 143 512 l 1
 227 515 l 1xa0
 285 706 l 1
 357 706 l 1
 300 518 l 1
 441 523 l 1
 501 720 l 1
 572 720 l 1
 513 526 l 1
 585 529 l 1
 574 458 l 1
 491 455 l 1
 446 308 l 1
 518 311 l 1
 504 240 l 1
 425 237 l 1x50
 364 38 l 1
 292 38 l 1
 352 235 l 1
 213 230 l 1
 153 30 l 1
 81 30 l 1
 141 228 l 1
 60 225 l 1x80
279 447 m 1
 235 300 l 1
 374 305 l 1
 419 452 l 1
 279 447 l 1
EndSplineSet
EndChar

StartChar: quotesingle
Encoding: 39 39 4
Width: 276
Flags: MW
HStem: 658 188<84 213 122 174>
VStem: 84 129
LayerCount: 2
Fore
SplineSet
84 658 m 1
 122 846 l 1
 213 846 l 1
 174 658 l 1
 84 658 l 1
EndSplineSet
EndChar

StartChar: parenleft
Encoding: 40 40 5
Width: 465
Flags: MW
VStem: 63 99<227.5 433.5 227.5 440>
LayerCount: 2
Fore
SplineSet
383 865 m 1
 243 724 162 540 162 327 c 0
 162 128 238 -64 376 -208 c 1
 307 -279 l 1
 150 -117 63 99 63 324 c 0
 63 556 149 765 304 926 c 1
 383 865 l 1
EndSplineSet
EndChar

StartChar: parenright
Encoding: 41 41 6
Width: 466
Flags: MW
VStem: 294 101<215 423.5>
LayerCount: 2
Fore
SplineSet
294 318 m 0
 294 529 215 716 71 859 c 1
 141 930 l 1
 302 771 395 563 395 320 c 0
 395 91 304 -128 141 -290 c 1
 62 -229 l 1
 211 -86 294 112 294 318 c 0
EndSplineSet
EndChar

StartChar: plus
Encoding: 43 43 7
Width: 760
Flags: MW
HStem: 277 90<104 342 104 342>
VStem: 342 93<18 277 18 367>
LayerCount: 2
Fore
SplineSet
104 277 m 1
 104 367 l 1
 342 367 l 1
 343 588 l 1
 436 588 l 1
 436 366 l 1
 663 366 l 1
 663 276 l 1
 435 276 l 1
 435 18 l 1
 341 18 l 1
 342 277 l 1
 104 277 l 1
EndSplineSet
EndChar

StartChar: comma
Encoding: 44 44 8
Width: 345
Flags: MW
HStem: -115 207<58 261 58 261>
VStem: 58 203
LayerCount: 2
Fore
SplineSet
58 -115 m 1
 146 92 l 1
 261 92 l 1
 136 -115 l 1
 58 -115 l 1
EndSplineSet
EndChar

StartChar: hyphen
Encoding: 45 45 9
Width: 409
Flags: MW
HStem: 227 90<69 349 69 349>
VStem: 69 280<227 317 227 317>
LayerCount: 2
Fore
SplineSet
69 317 m 1
 349 317 l 1
 349 227 l 1
 69 227 l 1
 69 317 l 1
EndSplineSet
EndChar

StartChar: period
Encoding: 46 46 10
Width: 348
Flags: MW
HStem: 0 164<124 233 124 233>
VStem: 124 109<0 164 0 164>
LayerCount: 2
Fore
SplineSet
124 164 m 1
 233 164 l 1
 233 0 l 1
 124 0 l 1
 124 164 l 1
EndSplineSet
EndChar

StartChar: slash
Encoding: 47 47 11
Width: 581
Flags: W
LayerCount: 2
Fore
SplineSet
146 -68 m 1
 44 -68 l 1
 453 844 l 1
 555 844 l 1
 146 -68 l 1
EndSplineSet
EndChar

StartChar: zero
Encoding: 48 48 12
Width: 584
Flags: MW
HStem: -21 95<250.5 296 296 299> 430 99<294 296 296 343.5>
VStem: 50 103<205 298.5 205 328.5> 441 100<207.5 302>
LayerCount: 2
Fore
SplineSet
153 251 m 0
 153 159 208 74 293 74 c 0
 376 74 441 158 441 257 c 0
 441 347 387 430 300 430 c 0
 213 430 153 346 153 251 c 0
296 -21 m 2
 159 -21 50 103 50 256 c 0
 50 401 153 528 294 529 c 1
 296 529 l 2
 438 529 541 401 541 254 c 0
 541 103 436 -20 299 -21 c 1
 296 -21 l 2
EndSplineSet
EndChar

StartChar: one
Encoding: 49 49 13
Width: 340
Flags: MW
HStem: 0 21G<175 278 175 175>
VStem: 175 103<0 379>
LayerCount: 2
Fore
SplineSet
175 497 m 1
 277 497 l 1
 278 0 l 1
 175 0 l 1
 175 379 l 1
 51 274 l 1
 -10 340 l 1
 175 497 l 1
EndSplineSet
EndChar

StartChar: two
Encoding: 50 50 14
Width: 465
Flags: MW
HStem: 12 90<25 85 256 453 25 85> 446 94<183.5 242>
VStem: 313 92<324 365>
LayerCount: 2
Fore
SplineSet
313 337 m 0
 313 393 276 446 208 446 c 0
 159 446 120 408 86 360 c 1
 21 415 l 1
 75 488 140 540 219 540 c 0
 338 540 405 450 405 352 c 0
 405 230 336 143 256 102 c 1
 453 102 l 1
 453 12 l 1
 25 12 l 1
 25 102 l 1
 145 102 239 149 292 256 c 0
 306 284 313 311 313 337 c 0
EndSplineSet
EndChar

StartChar: three
Encoding: 51 51 15
Width: 562
Flags: MW
HStem: -255 88<186.5 245 186.5 279> 88 84<151 152 151 151 152 187> 437 90<186 250.5>
VStem: 361 100<282.5 352.5> 391 107<-74 -27.5>
LayerCount: 2
Fore
SplineSet
361 313 m 0xf0
 361 392 295 437 206 437 c 0
 153 437 108 416 69 375 c 1
 30 441 l 1
 86 498 150 527 222 527 c 0
 362 527 461 452 461 320 c 0xf0
 461 245 426 187 368 147 c 1
 431 123 498 56 498 -36 c 0
 498 -163 349 -255 209 -255 c 0
 158 -255 108 -244 61 -222 c 1
 96 -139 l 1
 130 -158 168 -167 205 -167 c 0
 285 -167 391 -115 391 -33 c 0xe8
 391 -22 389 -10 385 2 c 0
 357 83 276 88 187 88 c 2
 152 88 l 1
 151 88 l 1
 150 172 l 1
 264 172 361 214 361 313 c 0xf0
EndSplineSet
EndChar

StartChar: four
Encoding: 52 52 16
Width: 620
Flags: MW
HStem: 36 90<146 360 28 28 462 599> 507 20G<362 464 464 464>
VStem: 360 102<36 36 36 126>
LayerCount: 2
Fore
SplineSet
146 126 m 1
 360 126 l 1
 361 395 l 1
 146 126 l 1
28 126 m 1
 362 527 l 1
 464 527 l 1
 462 126 l 1
 599 126 l 1
 599 36 l 1
 462 36 l 1
 461 -222 l 1
 359 -222 l 1
 360 36 l 1
 28 36 l 1
 28 126 l 1
EndSplineSet
EndChar

StartChar: five
Encoding: 53 53 17
Width: 526
Flags: MW
HStem: -253 94<227 295.5 225.5 330> 162 91<251.5 296.5> 443 91<185 447 185 185>
VStem: 88 96<156 156> 419 97<-45 56>
LayerCount: 2
Fore
SplineSet
264 253 m 0
 404 253 516 164 516 -3 c 0
 516 -147 404 -253 256 -253 c 0
 198 -253 134 -236 69 -199 c 1
 112 -120 l 1
 159 -147 205 -159 246 -159 c 0
 345 -159 419 -91 419 1 c 0
 419 111 343 162 250 162 c 0
 229 162 207 160 184 156 c 1
 88 156 l 1
 89 534 l 1
 447 534 l 1
 447 443 l 1
 185 443 l 1
 184 246 l 1
 212 251 239 253 264 253 c 0
EndSplineSet
EndChar

StartChar: six
Encoding: 54 54 18
Width: 599
Flags: MW
HStem: -10 104<272.5 349 272.5 379.5> 326 80<298 328>
VStem: 55 99<217 268 268 274 217 308> 440 110<169.5 237.5>
LayerCount: 2
Fore
SplineSet
505 742 m 1
 542 653 l 1
 448 618 361 566 286 500 c 0
 240 460 200 413 176 361 c 1
 220 390 271 406 325 406 c 0
 449 406 550 332 550 207 c 0
 550 89 445 -10 314 -10 c 0
 163 -10 55 107 55 256 c 0
 55 360 110 458 183 536 c 0
 271 631 382 702 505 742 c 1
440 202 m 0
 440 273 370 326 286 326 c 0
 237 326 189 308 154 274 c 1
 154 268 l 2
 154 166 230 94 315 94 c 0
 383 94 440 137 440 202 c 0
EndSplineSet
EndChar

StartChar: seven
Encoding: 55 55 19
Width: 579
Flags: MW
HStem: 415 97<85 419 85 85>
LayerCount: 2
Fore
SplineSet
85 512 m 1
 531 511 l 1
 531 415 l 1
 191 -222 l 1
 82 -222 l 1
 419 415 l 1
 85 415 l 1
 85 512 l 1
EndSplineSet
EndChar

StartChar: eight
Encoding: 56 56 20
Width: 588
Flags: MW
HStem: -37 87<281.5 345 281.5 355> 597 89<269 322.5>
VStem: 85 100<129.5 187.5> 100 94<485 540 485 563.5> 408 99<478.5 533.5> 432 88<119 183>
LayerCount: 2
Fore
SplineSet
294 597 m 0xd8
 244 597 194 569 194 511 c 0
 194 459 250 418 313 386 c 1
 364 416 408 454 408 503 c 0
 408 564 351 597 294 597 c 0xd8
295 -37 m 0
 183 -37 85 41 85 146 c 0xe4
 85 229 145 290 219 335 c 1
 152 377 100 436 100 511 c 0
 100 616 197 686 302 686 c 0
 413 686 507 615 507 510 c 0xd8
 507 440 461 383 400 343 c 1
 467 303 520 245 520 160 c 0xc4
 520 48 415 -37 295 -37 c 0
316 50 m 0
 374 50 432 86 432 152 c 0
 432 214 368 256 301 291 c 1
 240 259 185 220 185 162 c 0
 185 97 247 50 316 50 c 0
EndSplineSet
EndChar

StartChar: nine
Encoding: 57 57 21
Width: 606
Flags: MW
HStem: 77 91<281.5 315> 413 106<259.5 335.5>
VStem: 66 111<263 330 263 354.5> 446 100<225 232 232 282>
LayerCount: 2
Fore
SplineSet
298 519 m 0
 458 519 546 380 546 239 c 0
 546 119 483 12 401 -71 c 0
 325 -148 231 -205 128 -238 c 1
 90 -143 l 1
 222 -104 350 -11 413 108 c 1
 377 88 336 77 294 77 c 0
 166 77 66 162 66 293 c 0
 66 416 171 519 298 519 c 0
177 299 m 0
 177 227 240 168 323 168 c 0
 371 168 416 190 446 225 c 1
 446 232 l 2
 446 332 377 413 294 413 c 0
 225 413 177 361 177 299 c 0
EndSplineSet
EndChar

StartChar: colon
Encoding: 58 58 22
Width: 373
Flags: MW
HStem: 0 151<142 245 142 245> 341 150<142 245 142 245>
VStem: 142 103<0 151 0 151 341 491>
LayerCount: 2
Fore
SplineSet
142 151 m 1
 245 151 l 1
 245 0 l 1
 142 0 l 1
 142 151 l 1
142 491 m 1
 245 491 l 1
 245 341 l 1
 142 341 l 1
 142 491 l 1
EndSplineSet
EndChar

StartChar: semicolon
Encoding: 59 59 23
Width: 345
Flags: MW
HStem: 341 150<145 248 145 248>
VStem: 145 103<341 491 341 491>
LayerCount: 2
Fore
SplineSet
145 341 m 1
 145 491 l 1
 248 491 l 1
 248 341 l 1
 145 341 l 1
52 -95 m 1
 149 92 l 1
 258 92 l 1
 142 -95 l 1
 52 -95 l 1
EndSplineSet
EndChar

StartChar: less
Encoding: 60 60 24
Width: 823
Flags: W
LayerCount: 2
Fore
SplineSet
229 301 m 1
 711 88 l 1
 711 -15 l 1
 116 249 l 1
 116 351 l 1
 701 621 l 1
 701 519 l 1
 229 301 l 1
EndSplineSet
EndChar

StartChar: equal
Encoding: 61 61 25
Width: 844
Flags: MW
HStem: 172 90<118 723 118 723> 395 90<118 723 118 723>
LayerCount: 2
Fore
SplineSet
118 262 m 1
 723 262 l 1
 723 172 l 1
 118 172 l 1
 118 262 l 1
118 485 m 1
 723 485 l 1
 723 395 l 1
 118 395 l 1
 118 485 l 1
EndSplineSet
EndChar

StartChar: greater
Encoding: 62 62 26
Width: 823
Flags: W
LayerCount: 2
Fore
SplineSet
132 -15 m 1
 132 88 l 1
 605 301 l 1
 118 519 l 1
 118 621 l 1
 719 352 l 1
 719 250 l 1
 132 -15 l 1
EndSplineSet
EndChar

StartChar: question
Encoding: 63 63 27
Width: 564
Flags: MW
HStem: -10 154<212 327 212 327> 226 171<220 267 220 321 219 267> 669 93<269 315>
VStem: 212 115<-10 144> 220 102<318 397 318 397> 411 104<490.5 577>
LayerCount: 2
Fore
SplineSet
220 397 m 1xec
 314 397 411 441 411 540 c 0
 411 614 349 669 281 669 c 0
 255 669 228 661 204 643 c 1
 167 725 l 1
 207 751 249 762 289 762 c 0
 409 762 515 663 515 539 c 0
 515 411 423 342 322 318 c 1
 321 226 l 1
 219 226 l 1
 220 337 l 1
 220 397 l 1xec
327 -10 m 1xf4
 212 -10 l 1
 212 144 l 1
 327 144 l 1
 327 -10 l 1xf4
EndSplineSet
EndChar

StartChar: at
Encoding: 64 64 28
Width: 850
Flags: MW
HStem: -162 75<448 450 448 497> -19 20G<663 663> 21 71<611.5 648.5 611.5 666> 36 63<417 419 419 432> 342 73<407 443 443 445> 506 72<354 514.5>
VStem: 58 77<127 293.5 127 311> 238 78<180.5 247.5 180.5 271> 522 79<292.5 312.5> 722 77<197.5 318>
LayerCount: 2
Fore
SplineSet
722 243 m 0xefc0
 722 393 592 506 437 506 c 0
 271 506 135 376 135 211 c 0
 135 43 278 -87 448 -87 c 2
 450 -87 l 1
 530 -86 606 -54 663 1 c 1
 715 -57 l 1
 643 -125 547 -162 447 -162 c 0
 234 -162 58 -1 58 207 c 0
 58 415 233 578 442 578 c 0
 641 578 799 433 799 250 c 0
 799 120 712 21 620 21 c 0xefc0
 578 21 538 44 519 72 c 1
 489 49 451 36 413 36 c 0xdfc0
 308 36 238 114 238 216 c 0
 238 326 330 415 441 415 c 0
 528 415 601 366 601 283 c 0
 601 238 576 197 576 149 c 0
 576 118 597 92 626 92 c 0
 671 92 722 152 722 243 c 0xefc0
316 212 m 0
 316 149 360 99 417 99 c 2
 419 99 l 2xdfc0
 454 99 484 120 498 151 c 1
 501 195 522 287 522 298 c 0
 522 327 468 342 445 342 c 2
 443 342 l 2
 371 342 316 283 316 212 c 0
EndSplineSet
EndChar

StartChar: A
Encoding: 65 65 29
Width: 763
Flags: MW
HStem: 0 21G<49 158 49 49> 197 86<244 509> 701 20G<370 473 473 473>
LayerCount: 2
Fore
SplineSet
509 283 m 1
 413 585 l 1
 282 283 l 1
 509 283 l 1
536 198 m 1
 244 197 l 1
 158 0 l 1
 49 0 l 1
 370 721 l 1
 473 721 l 1
 705 1 l 1
 599 1 l 1
 536 198 l 1
EndSplineSet
EndChar

StartChar: B
Encoding: 66 66 30
Width: 646
Flags: MW
HStem: 0 87<197 286 197 286> 359 83<269.5 284 284 325.5 197 337.5> 635 87<197 282 197 197>
VStem: 94 103<87 358 442 635> 436 101<511 579.5> 479 102<172 260.5 141 267>
LayerCount: 2
Fore
SplineSet
282 722 m 2xf4
 417 722 537 678 537 543 c 0xf8
 537 479 503 431 449 401 c 1
 529 368 581 307 581 214 c 0
 581 68 447 0 286 0 c 2
 94 0 l 1
 94 722 l 1
 282 722 l 2xf4
436 540 m 0
 436 619 360 635 282 635 c 2
 197 635 l 1
 197 442 l 1
 284 442 l 2
 367 442 436 474 436 540 c 0
286 87 m 2
 388 87 479 122 479 222 c 0xf4
 479 312 391 359 284 359 c 0
 255 359 226 358 197 358 c 1
 197 87 l 1
 286 87 l 2
EndSplineSet
EndChar

StartChar: C
Encoding: 67 67 31
Width: 686
Flags: MW
HStem: -7 102<348.5 459.5> 632 100<350.5 430 430 432>
VStem: 66 109<278 442 278 470>
LayerCount: 2
Fore
SplineSet
424 95 m 0
 503 95 563 116 619 154 c 1
 672 70 l 1
 595 21 509 -7 410 -7 c 0
 198 -7 66 135 66 355 c 0
 66 585 205 732 415 732 c 0
 517 732 594 706 669 662 c 1
 622 578 l 1
 565 613 499 632 432 632 c 2
 430 632 l 2
 271 632 175 527 175 357 c 0
 175 199 273 95 424 95 c 0
EndSplineSet
EndChar

StartChar: D
Encoding: 68 68 32
Width: 701
Flags: MW
HStem: 0 102<168 289 289 326> 620 102<168 279 279 295 168 168>
VStem: 66 102<102 620 102 722> 550 108<266.5 429.5>
LayerCount: 2
Fore
SplineSet
279 722 m 2
 512 722 658 590 658 350 c 0
 658 131 547 0 326 0 c 2
 66 0 l 1
 66 722 l 1
 279 722 l 2
550 345 m 0
 550 514 454 620 295 620 c 2
 168 620 l 1
 168 102 l 1
 289 102 l 2
 455 102 550 188 550 345 c 0
EndSplineSet
EndChar

StartChar: E
Encoding: 69 69 33
Width: 621
Flags: MW
HStem: 0 99<202 563 202 563> 324 99<202 453 202 453> 623 99<202 531 202 202>
VStem: 99 103<99 324 423 623>
LayerCount: 2
Fore
SplineSet
99 0 m 1
 99 722 l 1
 531 722 l 1
 531 623 l 1
 202 623 l 1
 202 423 l 1
 453 423 l 1
 453 324 l 1
 202 324 l 1
 202 99 l 1
 563 99 l 1
 563 0 l 1
 99 0 l 1
EndSplineSet
EndChar

StartChar: F
Encoding: 70 70 34
Width: 585
Flags: MW
HStem: 0 21G<99 99 99 202> 324 99<202 466 202 466> 623 99<202 534 202 202>
VStem: 99 103<0 324 423 623>
LayerCount: 2
Fore
SplineSet
99 0 m 1
 99 722 l 1
 534 722 l 1
 534 623 l 1
 202 623 l 1
 202 423 l 1
 466 423 l 1
 466 324 l 1
 202 324 l 1
 202 0 l 1
 99 0 l 1
EndSplineSet
EndChar

StartChar: G
Encoding: 71 71 35
Width: 781
Flags: MW
HStem: -6 90<356 471> 261 93<483 620 483 714> 629 101<360 480.5>
VStem: 67 105<267.5 436.5 267.5 467> 621 93<122 122>
LayerCount: 2
Fore
SplineSet
437 84 m 0
 508 84 563 98 621 122 c 1
 620 261 l 1
 483 261 l 1
 483 354 l 1
 714 354 l 1
 714 76 l 1
 624 22 526 -6 416 -6 c 0
 198 -6 67 127 67 352 c 0
 67 582 210 730 429 730 c 0
 533 730 613 704 692 658 c 1
 647 572 l 1
 586 610 519 629 442 629 c 0
 278 629 172 522 172 351 c 0
 172 184 275 84 437 84 c 0
EndSplineSet
EndChar

StartChar: H
Encoding: 72 72 36
Width: 760
Flags: MW
HStem: 0 21G<79 182 79 79 584 687 584 584> 314 96<182 584 182 584> 702 20G<80 182 182 182 584 687 687 687>
VStem: 79 103<0 314> 584 103<0 314 314 314 410 722 0 722>
LayerCount: 2
Fore
SplineSet
584 722 m 1
 687 722 l 1
 687 0 l 1
 584 0 l 1
 584 314 l 1
 182 314 l 1
 182 0 l 1
 79 0 l 1
 80 722 l 1
 182 722 l 1
 182 410 l 1
 584 410 l 1
 584 722 l 1
EndSplineSet
EndChar

StartChar: I
Encoding: 73 73 37
Width: 262
Flags: MW
HStem: 0 21G<83 83 83 185> 702 20G<83 186 186 186>
VStem: 83 102<0 722>
LayerCount: 2
Fore
SplineSet
83 0 m 1
 83 722 l 1
 186 722 l 1
 185 0 l 1
 83 0 l 1
EndSplineSet
EndChar

StartChar: J
Encoding: 74 74 38
Width: 321
Flags: MW
HStem: -235 90<33 82 33 104> 702 20G<142 245 245 245>
VStem: 142 102<-60 722>
LayerCount: 2
Fore
SplineSet
244 0 m 2
 244 -120 166 -235 42 -235 c 0
 4 -235 -33 -222 -62 -197 c 1
 -16 -119 l 1
 0 -136 22 -145 44 -145 c 0
 120 -145 142 -63 142 0 c 2
 142 722 l 1
 245 722 l 1
 244 0 l 2
EndSplineSet
EndChar

StartChar: K
Encoding: 75 75 39
Width: 668
Flags: MW
HStem: 0 21G<83 83 83 185 497 497 497 619> 702 20G<83 185 185 185 486 608 608 608>
VStem: 83 102<0 307 451 722>
LayerCount: 2
Fore
SplineSet
83 0 m 1
 83 722 l 1
 185 722 l 1
 185 451 l 1
 486 722 l 1
 608 722 l 1
 236 379 l 1
 619 0 l 1
 497 0 l 1
 185 307 l 1
 185 0 l 1
 83 0 l 1
EndSplineSet
EndChar

StartChar: L
Encoding: 76 76 40
Width: 572
Flags: MW
HStem: 0 99<185 538 185 538> 702 20G<83 185 185 185>
VStem: 83 102<99 722 99 722 99 722>
LayerCount: 2
Fore
SplineSet
83 0 m 1
 83 722 l 1
 185 722 l 1
 185 99 l 1
 538 99 l 1
 538 0 l 1
 83 0 l 1
EndSplineSet
EndChar

StartChar: M
Encoding: 77 77 41
Width: 877
Flags: MW
HStem: 0 21G<50 152 50 50 376 475 376 376 712 712 712 815> 702 20G<104 206 206 206 698 749 749 749>
LayerCount: 2
Fore
SplineSet
668 509 m 1
 475 0 l 1
 376 0 l 1
 187 501 l 1
 152 0 l 1
 50 0 l 1
 104 722 l 1
 206 722 l 1
 420 116 l 1
 647 723 l 1
 698 722 l 1
 749 722 l 1
 815 0 l 1
 712 0 l 1
 668 509 l 1
EndSplineSet
EndChar

StartChar: N
Encoding: 78 78 42
Width: 770
Flags: MW
HStem: 0 21G<83 83 83 185 601 601 601 704> 702 20G<83 185 185 185 601 704 704 704>
VStem: 83 102<0 571 0 722> 601 103<0 722 151 722 0 722>
LayerCount: 2
Fore
SplineSet
83 0 m 1
 83 722 l 1
 185 722 l 1
 601 151 l 1
 601 722 l 1
 704 722 l 1
 704 0 l 1
 601 0 l 1
 185 571 l 1
 185 0 l 1
 83 0 l 1
EndSplineSet
EndChar

StartChar: O
Encoding: 79 79 43
Width: 760
Flags: MW
HStem: -6 95<377 381 377 377> 632 96<309.5 454>
VStem: 52 106<356 356> 609 105<285.5 438.5>
LayerCount: 2
Fore
SplineSet
383 632 m 0
 236 632 158 513 158 356 c 0
 158 204 245 89 383 89 c 0
 534 89 609 209 609 362 c 0
 609 515 525 632 383 632 c 0
382 728 m 0
 592 728 714 571 714 360 c 0
 714 149 586 -6 381 -6 c 2
 377 -6 l 1
 177 -3 53 149 52 356 c 0
 50 570 180 728 382 728 c 0
EndSplineSet
EndChar

StartChar: P
Encoding: 80 80 44
Width: 564
Flags: MW
HStem: 0 21G<83 185 83 83> 243 99<275.5 321.5 258.5 367> 626 96<185 258 185 185>
VStem: 83 102<0 264 0 361 361 626> 435 103<438.5 528.5>
LayerCount: 2
Fore
SplineSet
297 243 m 0
 254 243 219 251 185 264 c 1
 185 0 l 1
 83 0 l 1
 83 722 l 1
 258 722 l 2
 411 722 538 641 538 470 c 0
 538 341 437 243 297 243 c 0
435 477 m 0
 435 580 350 626 258 626 c 2
 185 626 l 1
 185 361 l 1
 213 348 243 342 274 342 c 0
 369 342 435 400 435 477 c 0
EndSplineSet
EndChar

StartChar: Q
Encoding: 81 81 45
Width: 765
Flags: MW
HStem: -236 90<772 772> 630 98<386 390 386 457.5>
VStem: 47 104<285 439 285 471> 620 104<281.5 434>
LayerCount: 2
Fore
SplineSet
465 3 m 1
 534 -76 642 -138 772 -146 c 1
 772 -236 l 1
 673 -233 577 -201 495 -145 c 0
 441 -107 395 -60 359 -5 c 1
 168 7 47 156 47 366 c 0
 47 576 180 728 386 728 c 2
 390 728 l 1
 594 725 724 574 724 357 c 0
 724 177 625 38 465 3 c 1
386 630 m 0
 233 630 151 515 151 363 c 0
 151 207 244 91 385 91 c 0
 539 91 620 207 620 356 c 0
 620 512 529 630 386 630 c 0
EndSplineSet
EndChar

StartChar: R
Encoding: 82 82 46
Width: 687
Flags: MW
HStem: 0 21G<103 205 103 103 569 687 569 569> 303 94<205 271 205 271> 623 99<205 297 205 205>
VStem: 103 102<0 303 0 397 397 623> 468 102<470.5 554.5>
LayerCount: 2
Fore
SplineSet
297 722 m 2
 444 722 570 663 570 515 c 0
 570 426 515 364 432 331 c 1
 687 0 l 1
 569 0 l 1
 332 307 l 1
 312 305 292 303 271 303 c 2
 205 303 l 1
 205 0 l 1
 103 0 l 1
 103 722 l 1
 297 722 l 2
468 512 m 0
 468 597 386 623 297 623 c 2
 205 623 l 1
 205 397 l 1
 271 397 l 2
 376 397 468 425 468 512 c 0
EndSplineSet
EndChar

StartChar: S
Encoding: 83 83 47
Width: 587
Flags: MW
HStem: -6 95<286 290 290 325.5 286 353> 636 95<253 315>
VStem: 68 107<520.5 553 520.5 609.5> 422 111<151.5 223>
LayerCount: 2
Fore
SplineSet
454 594 m 1
 401 619 347 636 283 636 c 0
 223 636 176 609 175 553 c 1
 175 488 266 447 340 414 c 0
 436 371 533 307 533 185 c 0
 533 69 424 -6 282 -6 c 0
 200 -6 127 11 55 39 c 1
 87 133 l 1
 149 105 217 90 286 89 c 1
 290 89 l 2
 361 89 422 118 422 185 c 0
 422 261 342 303 268 335 c 1
 172 378 68 434 68 558 c 0
 68 661 162 731 287 731 c 0
 366 731 427 711 489 681 c 1
 454 594 l 1
EndSplineSet
EndChar

StartChar: T
Encoding: 84 84 48
Width: 625
Flags: MW
HStem: 0 21G<251 353 251 251> 628 100<12 619 12 251 353 353 353 619>
VStem: 251 102<0 628 0 628>
LayerCount: 2
Fore
SplineSet
12 628 m 1
 12 728 l 1
 619 728 l 1
 619 628 l 1
 353 628 l 1
 353 0 l 1
 251 0 l 1
 251 628 l 1
 12 628 l 1
EndSplineSet
EndChar

StartChar: U
Encoding: 85 85 49
Width: 707
Flags: MW
HStem: -6 100<310.5 435 310.5 452.5> 702 20G<73 175 175 175 553 656 656 656>
VStem: 73 102<312 332 332 722> 553 103<299 320 320 722>
LayerCount: 2
Fore
SplineSet
73 722 m 1
 175 722 l 1
 175 332 l 2
 175 189 243 94 378 94 c 0
 492 94 553 179 553 299 c 2
 553 722 l 1
 656 722 l 1
 656 320 l 2
 656 126 547 -6 358 -6 c 0
 173 -6 73 119 73 312 c 2
 73 722 l 1
EndSplineSet
EndChar

StartChar: V
Encoding: 86 86 50
Width: 759
Flags: MW
HStem: 0 21G<342 451 342 342> 702 20G<60 168 168 168 625 731 731 731>
LayerCount: 2
Fore
SplineSet
731 722 m 1
 451 0 l 1
 342 0 l 1
 60 722 l 1
 168 722 l 1
 398 143 l 1
 625 722 l 1
 731 722 l 1
EndSplineSet
EndChar

StartChar: W
Encoding: 87 87 51
Width: 965
Flags: MW
HStem: 0 21G<283 375 283 283 632 725 632 632> 702 20G<50 152 152 152 457 545 545 545 828 926 926 926>
LayerCount: 2
Fore
SplineSet
926 722 m 1
 725 0 l 1
 632 0 l 1
 504 548 l 1
 375 0 l 1
 283 0 l 1
 50 722 l 1
 152 722 l 1
 321 159 l 1
 457 722 l 1
 545 722 l 1
 676 163 l 1
 828 722 l 1
 926 722 l 1
EndSplineSet
EndChar

StartChar: X
Encoding: 88 88 52
Width: 695
Flags: MW
HStem: 0 21G<29 141 29 29 539 648 539 539> 702 20G<71 180 180 180 554 666 666 666>
LayerCount: 2
Fore
SplineSet
71 722 m 1
 180 722 l 1
 354 453 l 1
 554 722 l 1
 666 722 l 1
 408 370 l 1
 648 0 l 1
 539 0 l 1
 352 289 l 1
 141 0 l 1
 29 0 l 1
 300 369 l 1
 71 722 l 1
EndSplineSet
EndChar

StartChar: Y
Encoding: 89 89 53
Width: 628
Flags: MW
HStem: 0 21G<273 376 273 273> 702 20G<40 145 145 145 513 622 622 622>
VStem: 273 103<0 313 313 313>
LayerCount: 2
Fore
SplineSet
513 722 m 1
 622 722 l 1
 376 335 l 1
 376 0 l 1
 273 0 l 1
 273 313 l 1
 40 722 l 1
 145 722 l 1
 320 422 l 1
 513 722 l 1
EndSplineSet
EndChar

StartChar: Z
Encoding: 90 90 54
Width: 672
Flags: MW
HStem: 2 96<163 630 48 48> 617 96<113 605 113 490 113 605>
LayerCount: 2
Fore
SplineSet
113 617 m 1
 113 713 l 1
 605 713 l 1
 605 617 l 1
 163 98 l 1
 630 98 l 1
 630 2 l 1
 48 2 l 1
 48 98 l 1
 490 617 l 1
 113 617 l 1
EndSplineSet
EndChar

StartChar: underscore
Encoding: 95 95 55
Width: 720
Flags: MW
HStem: -258 102<36 692 36 692>
LayerCount: 2
Fore
SplineSet
36 -156 m 1
 692 -156 l 1
 692 -258 l 1
 36 -258 l 1
 36 -156 l 1
EndSplineSet
EndChar

StartChar: grave
Encoding: 96 96 56
Width: 352
Flags: MW
HStem: 656 190<65 213 65 316>
VStem: 65 251<656 846>
LayerCount: 2
Fore
SplineSet
213 656 m 1
 65 846 l 1
 174 846 l 1
 316 656 l 1
 213 656 l 1
EndSplineSet
EndChar

StartChar: a
Encoding: 97 97 57
Width: 627
Flags: MW
HStem: -11 92<255 257 257 275> 0 21G<414 516 414 414> 264 72<291.5 352> 459 86<237.5 305>
VStem: 65 102<130 195 130 212> 414 102<0 72 72 72 170 260 260 260 334 347 0 373.5>
LayerCount: 2
Fore
SplineSet
414 334 m 1xbc
 414 413 350 459 260 459 c 0
 215 459 170 446 132 421 c 1
 86 493 l 1
 141 528 204 545 269 545 c 0
 412 545 516 474 516 347 c 2
 516 0 l 1
 414 0 l 1x7c
 414 72 l 1
 366 21 309 -11 241 -11 c 0
 136 -11 65 53 65 145 c 0
 65 279 197 336 353 336 c 0
 373 336 393 336 414 334 c 1xbc
414 260 m 1
 389 263 364 264 340 264 c 0
 243 264 167 237 167 153 c 0
 167 107 206 81 255 81 c 2
 257 81 l 2xbc
 326 81 376 116 414 170 c 1
 414 260 l 1
EndSplineSet
EndChar

StartChar: b
Encoding: 98 98 58
Width: 604
Flags: MW
HStem: -4 78<290 347.5 268 393.5> 465 75<306 347> 763 20G<68 171 171 171>
VStem: 68 103<0 44 0 134 134 407 482 783> 460 105<207.5 312.5>
LayerCount: 2
Fore
SplineSet
322 -4 m 0
 258 -4 210 14 171 44 c 1
 171 0 l 1
 68 0 l 1
 68 783 l 1
 171 783 l 1
 171 482 l 1
 218 518 277 540 335 540 c 0
 479 540 565 416 565 263 c 0
 565 110 465 -4 322 -4 c 0
297 465 m 0
 247 465 203 442 171 407 c 1
 171 134 l 1
 200 96 244 74 292 74 c 0
 403 74 460 160 460 255 c 0
 460 370 397 465 297 465 c 0
EndSplineSet
EndChar

StartChar: c
Encoding: 99 99 59
Width: 484
Flags: MW
HStem: -10 94<271 342.5> 450 89<312 316 312 340>
VStem: 48 105<214 314.5 214 346.5>
LayerCount: 2
Fore
SplineSet
153 264 m 0
 153 164 216 84 326 84 c 0
 366 84 402 100 432 129 c 1
 484 61 l 1
 434 14 375 -10 310 -10 c 0
 144 -10 48 108 48 269 c 0
 48 424 153 539 312 539 c 2
 316 539 l 1
 374 538 422 521 467 485 c 1
 424 412 l 1
 393 437 358 450 322 450 c 0
 212 450 153 365 153 264 c 0
EndSplineSet
EndChar

StartChar: d
Encoding: 100 100 60
Width: 638
Flags: MW
HStem: -6 82<276 327.5> 454 88<271.5 330 227.5 350.5> 763 20G<461 564 564 564>
VStem: 57 104<213 320 213 346.5> 463 103<148 455 342.5 410 410 410 342.5 533>
LayerCount: 2
Fore
SplineSet
327 454 m 0
 216 454 161 372 161 268 c 0
 161 158 228 76 324 76 c 0
 389 76 436 105 463 148 c 1
 463 290 l 1
 463 410 l 1
 424 438 374 454 327 454 c 0
295 542 m 0
 365 542 419 516 463 483 c 1
 463 583 462 683 461 783 c 1
 564 783 l 1
 565 652 566 521 566 389 c 0
 566 296 565 202 565 109 c 0
 565 73 565 36 564 0 c 1
 462 0 l 1
 462 57 l 1
 419 17 360 -6 295 -6 c 0
 147 -6 57 110 57 266 c 0
 57 427 160 542 295 542 c 0
EndSplineSet
EndChar

StartChar: e
Encoding: 101 101 61
Width: 577
Flags: MW
HStem: -9 90<336 338 336 354> 239 79<158 423 156 521 158 158> 452 91<254 330.5>
VStem: 51 107<239 239 239 347.5>
LayerCount: 2
Fore
SplineSet
293 543 m 0
 442 543 525 441 525 292 c 0
 525 274 524 257 521 239 c 1
 158 239 l 1
 174 144 237 81 336 81 c 2
 338 81 l 1
 382 82 426 96 461 123 c 1
 514 54 l 1
 457 13 389 -9 319 -9 c 0
 148 -9 51 103 51 268 c 0
 51 427 151 543 293 543 c 0
423 318 m 1
 414 396 367 452 294 452 c 0
 214 452 167 394 156 318 c 1
 423 318 l 1
EndSplineSet
EndChar

StartChar: f
Encoding: 102 102 62
Width: 478
Flags: MW
HStem: 0 21G<171 274 171 171> 433 95<29 171 29 171 274 461> 716 94<356.5 387.5 315 397.5>
VStem: 171 103<0 433 0 433 528 593>
LayerCount: 2
Fore
SplineSet
274 528 m 1
 461 528 l 1
 461 433 l 1
 274 433 l 1
 274 0 l 1
 171 0 l 1
 171 433 l 1
 29 433 l 1
 29 528 l 1
 171 528 l 1
 171 593 l 2
 171 724 260 810 370 810 c 0
 405 810 441 801 478 783 c 1
 448 702 l 1
 427 712 407 716 388 716 c 0
 325 716 274 667 274 593 c 2
 274 528 l 1
EndSplineSet
EndChar

StartChar: g
Encoding: 103 103 63
Width: 593
Flags: MW
HStem: -310 93<236 260 260 263> -21 86<344 357.5> 163 82<254.5 289 274 289> 435 78 458 82<250.5 307.5 226.5 316>
VStem: 40 78<-136.5 -97.5> 65 101<351 380.5 351 402.5> 69 82<107.5 140> 403 94<318.5 372.5 303 380.5> 463 94<-143 -75>
LayerCount: 2
Fore
SplineSet
463 -110 m 0xe440
 463 -40 389 -21 326 -21 c 0
 257 -21 196 -20 151 -5 c 1xe140
 131 -29 118 -60 118 -93 c 0
 118 -180 189 -217 283 -217 c 0
 374 -217 463 -176 463 -110 c 0xe440
260 -310 m 2
 135 -310 40 -252 40 -126 c 0xf440
 40 -69 63 -16 103 23 c 1
 82 43 69 74 69 118 c 0xf1
 69 162 87 199 118 224 c 1xf4
 86 255 65 295 65 347 c 0
 65 458 167 540 286 540 c 0xea
 329 540 364 530 397 513 c 1
 576 514 l 1
 576 436 l 1
 478 435 l 1
 490 413 497 388 497 357 c 0xf280
 497 249 397 163 276 163 c 2
 274 163 l 2
 235 163 197 173 164 190 c 1
 155 177 151 160 151 142 c 0
 151 73 198 63 266 63 c 0
 295 63 327 65 361 65 c 0
 458 65 557 13 557 -98 c 0
 557 -214 422 -309 263 -310 c 1
 260 -310 l 2
284 458 m 0xea80
 217 458 166 410 166 351 c 0
 167 290 223 245 287 245 c 2
 289 245 l 1
 349 247 403 287 403 350 c 0
 403 411 348 458 284 458 c 0xea80
EndSplineSet
EndChar

StartChar: h
Encoding: 104 104 64
Width: 591
Flags: MW
HStem: 0 21G<75 178 75 75 422 422 422 524> 450 95<310.5 339> 763 20G<75 177 177 177>
VStem: 75 102<327.5 393 327.5 485 485 727 727 783> 422 102<0 55>
LayerCount: 2
Fore
SplineSet
421 320 m 0
 421 392 376 450 302 450 c 0
 258 450 209 427 177 393 c 1
 177 262 178 131 178 0 c 1
 75 0 l 1
 75 783 l 1
 177 783 l 1
 177 727 l 1
 177 485 l 1
 223 522 282 545 339 545 c 0
 467 545 523 442 523 329 c 0
 523 219 524 110 524 0 c 1
 422 0 l 1
 421 107 421 213 421 320 c 0
EndSplineSet
EndChar

StartChar: i
Encoding: 105 105 65
Width: 272
Flags: MW
HStem: 0 21G<88 88 88 190> 513 20G<87 190 190 190> 690 134<84 193 84 193>
VStem: 87 103<0 533>
LayerCount: 2
Fore
SplineSet
84 690 m 1
 84 824 l 1
 193 824 l 1
 193 690 l 1
 84 690 l 1
88 0 m 1
 87 533 l 1
 190 533 l 1
 190 0 l 1
 88 0 l 1
EndSplineSet
EndChar

StartChar: j
Encoding: 106 106 66
Width: 370
Flags: MW
HStem: -310 96<64 86.5 57.5 121> 515 20G<159 261 261 261> 683 140<156 264 156 264>
VStem: 159 102<-116 535>
LayerCount: 2
Fore
SplineSet
156 683 m 1
 156 823 l 1
 264 823 l 1
 264 683 l 1
 156 683 l 1
44 -213 m 1
 50 -214 55 -214 60 -214 c 0
 113 -214 159 -171 159 -116 c 2
 159 535 l 1
 261 535 l 1
 261 -116 l 2
 261 -225 174 -310 68 -310 c 0
 60 -310 52 -310 44 -309 c 1
 44 -213 l 1
EndSplineSet
EndChar

StartChar: k
Encoding: 107 107 67
Width: 619
Flags: MW
HStem: 0 21G<106 106 106 209 467 467 467 594> 513 20G<441 571 571 571> 763 20G<106 209 209 209>
VStem: 106 103<0 245 337 783>
LayerCount: 2
Fore
SplineSet
106 0 m 1
 106 783 l 1
 209 783 l 1
 209 337 l 1
 441 533 l 1
 571 533 l 1
 291 292 l 1
 594 0 l 1
 467 0 l 1
 209 245 l 1
 209 0 l 1
 106 0 l 1
EndSplineSet
EndChar

StartChar: l
Encoding: 108 108 68
Width: 289
Flags: MW
HStem: 1 21G<96 96 96 198> 763 20G<95 198 198 198>
VStem: 96 102<1 783>
LayerCount: 2
Fore
SplineSet
96 1 m 1
 95 783 l 1
 198 783 l 1
 198 1 l 1
 96 1 l 1
EndSplineSet
EndChar

StartChar: m
Encoding: 109 109 69
Width: 940
Flags: MW
HStem: 1 21G<423 525 423 423 762 865 762 762> 453 93<295 386.5 319 321> 513 20G<85 187 187 187>
VStem: 85 102<323.5 484 484 533> 424 103<294.5 357 292 382.5> 762 103<1 342>
LayerCount: 2
Fore
SplineSet
686 544 m 0xdc
 808 544 864 453 864 346 c 0
 864 231 864 116 865 1 c 1
 762 1 l 1
 762 342 l 2
 762 404 716 449 653 449 c 2
 651 449 l 1
 605 448 557 425 524 390 c 1
 526 377 527 364 527 350 c 0
 527 234 526 118 525 1 c 1
 423 1 l 1
 424 119 424 236 424 353 c 0
 424 412 381 452 321 453 c 1
 319 453 l 2xdc
 271 453 221 430 187 394 c 1
 187 253 187 147 186 0 c 1
 83 0 l 1
 84 159 84 271 85 431 c 1
 85 533 l 1
 187 533 l 1xbc
 187 484 l 1
 231 523 290 546 348 546 c 0
 425 546 475 510 502 459 c 1
 547 511 617 544 686 544 c 0xdc
EndSplineSet
EndChar

StartChar: n
Encoding: 110 110 70
Width: 603
Flags: MW
HStem: 0 21G<76 178 76 76 433 536 433 433> 448 95<322.5 354> 513 20G<78 180 180 180>
VStem: 78 102<320 474 474 533> 433 103<0 338>
LayerCount: 2
Fore
SplineSet
354 543 m 0xd8
 476 543 535 456 535 345 c 2
 536 0 l 1
 433 0 l 1
 433 338 l 2
 433 404 387 448 321 448 c 0xd8
 268 448 216 422 180 384 c 1
 180 256 179 128 178 0 c 1
 76 0 l 1
 77 144 77 287 78 431 c 1
 78 533 l 1
 180 533 l 1xb8
 180 474 l 1
 227 517 291 543 354 543 c 0xd8
EndSplineSet
EndChar

StartChar: o
Encoding: 111 111 71
Width: 616
Flags: MW
HStem: -8 96<261 358 261 384> 448 92<255 352>
VStem: 53 105<223.5 325 223.5 345.5> 457 103<214 317>
LayerCount: 2
Fore
SplineSet
158 278 m 0
 158 169 215 88 307 88 c 0
 409 88 457 164 457 264 c 0
 457 370 398 448 306 448 c 0
 204 448 158 372 158 278 c 0
309 -8 m 0
 144 -8 53 106 53 266 c 0
 53 425 153 540 306 540 c 0
 469 540 560 428 560 270 c 0
 560 107 459 -8 309 -8 c 0
EndSplineSet
EndChar

StartChar: p
Encoding: 112 112 72
Width: 633
Flags: MW
HStem: -300 21G<75 178 75 75> -8 85<293.5 351 271 399.5> 464 76<329 369> 513 20G<75 178 178 178>
VStem: 75 103<-300 -300> 481 101<217.5 326.5>
LayerCount: 2
Fore
SplineSet
323 -8 m 0xec
 264 -8 220 6 180 31 c 1
 180 -79 179 -189 178 -300 c 1
 75 -300 l 1
 77 -173 77 -47 77 79 c 0
 77 182 77 286 76 389 c 0
 76 437 76 485 75 533 c 1
 178 533 l 1xdc
 178 470 l 1
 230 513 297 540 361 540 c 0
 503 540 582 413 582 272 c 0
 582 110 476 -8 323 -8 c 0xec
323 464 m 0xec
 262 464 211 428 179 383 c 1
 180 297 180 212 180 126 c 2
 180 112 l 1
 213 89 251 77 291 77 c 0
 411 77 481 160 481 275 c 0
 481 378 415 464 323 464 c 0xec
EndSplineSet
EndChar

StartChar: q
Encoding: 113 113 73
Width: 641
Flags: MW
HStem: -300 21G<465 568 465 465> -8 74<247.5 376.5> 461 78<283 345 239 362.5>
VStem: 50 107<210 322.5 210 342> 465 103<-300 28 28 28 97 411 411 411 491 533 -300 533>
LayerCount: 2
Fore
SplineSet
313 539 m 0
 377 539 425 520 465 491 c 1
 465 533 l 1
 568 533 l 1
 568 -300 l 1
 465 -300 l 1
 465 28 l 1
 423 4 376 -8 327 -8 c 0
 168 -8 50 100 50 266 c 0
 50 418 165 539 313 539 c 0
157 272 m 0
 157 148 245 67 357 66 c 0
 396 66 433 77 465 97 c 1
 465 411 l 1
 431 443 386 461 339 461 c 0
 227 461 157 373 157 272 c 0
EndSplineSet
EndChar

StartChar: r
Encoding: 114 114 74
Width: 422
Flags: MW
HStem: 0 21G<79 181 79 79> 448 94<326.5 367> 513 20G<79 181 181 181>
VStem: 79 102<0 366 469 533>
LayerCount: 2
Fore
SplineSet
362 448 m 0xd0
 283 448 226 410 181 366 c 1
 181 0 l 1
 79 0 l 1
 79 533 l 1
 181 533 l 1xb0
 181 469 l 1
 227 508 288 542 365 542 c 0
 377 542 390 541 402 539 c 1
 391 446 l 1
 381 447 372 448 362 448 c 0xd0
EndSplineSet
EndChar

StartChar: s
Encoding: 115 115 75
Width: 504
Flags: MW
HStem: -6 89<208 267 208 286> 457 83<241 288 200 290.5>
VStem: 66 103<363 415.5 363 437.5>
LayerCount: 2
Fore
SplineSet
267 457 m 0
 215 457 169 438 169 393 c 0
 169 333 238 321 298 307 c 0
 382 286 463 245 463 152 c 0
 463 51 349 -6 223 -6 c 0
 149 -6 83 14 20 53 c 1
 63 132 l 1
 118 99 176 83 240 83 c 0
 294 83 349 94 354 143 c 1
 358 198 293 212 233 227 c 0
 148 248 66 292 66 394 c 0
 66 481 147 540 253 540 c 0
 323 540 378 522 433 491 c 1
 396 414 l 1
 357 443 314 457 267 457 c 0
EndSplineSet
EndChar

StartChar: t
Encoding: 116 116 76
Width: 449
Flags: MW
HStem: -6 87<290 305> 432 93<27 27 27 148 250 427>
VStem: 148 102<176.5 210 210 432 525 622 622 622>
LayerCount: 2
Fore
SplineSet
27 432 m 1
 26 525 l 1
 148 525 l 1
 148 622 l 1
 250 684 l 1
 250 525 l 1
 427 525 l 1
 427 432 l 1
 250 432 l 1
 250 210 l 2
 250 143 261 81 319 81 c 0
 343 81 368 88 389 100 c 1
 420 23 l 1
 376 4 329 -6 281 -6 c 0
 197 -6 148 61 148 149 c 2
 148 432 l 1
 27 432 l 1
EndSplineSet
EndChar

StartChar: u
Encoding: 117 117 77
Width: 602
Flags: MW
HStem: -11 79<268 301> 0 21G<430 533 430 430> 513 20G<80 183 183 183 430 533 533 533>
VStem: 80 103<167 201 201 533> 430 103<0 48 48 48 134 533 0 533>
LayerCount: 2
Fore
SplineSet
183 201 m 2xb8
 183 126 227 68 309 68 c 0xb8
 360 68 404 94 430 134 c 1
 430 533 l 1
 533 533 l 1
 533 0 l 1
 430 0 l 1x78
 430 48 l 1
 387 11 331 -11 271 -11 c 0
 153 -11 80 63 80 167 c 2
 80 533 l 1
 183 533 l 1
 183 201 l 2xb8
EndSplineSet
EndChar

StartChar: v
Encoding: 118 118 78
Width: 576
Flags: MW
HStem: 0 21G<240 336 240 240> 513 20G<30 138 138 138 440 548 548 548>
LayerCount: 2
Fore
SplineSet
30 533 m 1
 138 533 l 1
 284 118 l 1
 440 533 l 1
 548 533 l 1
 336 0 l 1
 240 0 l 1
 30 533 l 1
EndSplineSet
EndChar

StartChar: w
Encoding: 119 119 79
Width: 935
Flags: MW
HStem: 0 21G<247 344 247 247 584 680 584 584> 513 20G<51 153 153 153 420 516 516 516 797 908 908 908>
LayerCount: 2
Fore
SplineSet
51 533 m 1
 153 533 l 1
 288 126 l 1
 420 533 l 1
 516 533 l 1
 632 120 l 1
 797 533 l 1
 908 533 l 1
 680 0 l 1
 584 0 l 1
 467 381 l 1
 344 0 l 1
 247 0 l 1
 51 533 l 1
EndSplineSet
EndChar

StartChar: x
Encoding: 120 120 80
Width: 582
Flags: MW
HStem: 0 21G<38 153 38 38 420 539 420 420> 513 20G<75 195 195 195 426 541 541 541>
LayerCount: 2
Fore
SplineSet
75 533 m 1
 195 533 l 1
 300 370 l 1
 426 533 l 1
 541 533 l 1
 359 279 l 1
 539 0 l 1
 420 0 l 1
 299 187 l 1
 153 0 l 1
 38 0 l 1
 241 276 l 1
 75 533 l 1
EndSplineSet
EndChar

StartChar: y
Encoding: 121 121 81
Width: 586
Flags: MW
HStem: -300 21G<56 166 56 56> 513 20G<37 147 147 147 451 553 553 553>
LayerCount: 2
Fore
SplineSet
37 533 m 1
 147 533 l 1
 289 192 l 1
 451 533 l 1
 553 533 l 1
 166 -300 l 1
 56 -300 l 1
 237 81 l 1
 37 533 l 1
EndSplineSet
EndChar

StartChar: z
Encoding: 122 122 82
Width: 506
Flags: MW
HStem: 0 93<150 482 31 31> 432 93<76 76>
LayerCount: 2
Fore
SplineSet
76 432 m 1
 76 525 l 1
 472 526 l 1
 472 433 l 1
 150 93 l 1
 482 93 l 1
 482 0 l 1
 31 0 l 1
 31 93 l 1
 353 433 l 1
 76 432 l 1
EndSplineSet
EndChar

StartChar: bar
Encoding: 124 124 83
Width: 96
Flags: MW
HStem: -21 20G<0 103 103 103> 1 21G<0 0 0 103> 512 20G<0 103 103 103> 535 21G<0 103 0 0>
VStem: 0 103<-377 -1 -377 -1 1 532 535 847>
LayerCount: 2
Fore
SplineSet
0 847 m 1
 103 847 l 1
 103 535 l 1
 0 535 l 1
 0 847 l 1
0 1 m 1
 0 532 l 1
 103 532 l 1
 103 1 l 1
 0 1 l 1
0 -377 m 1
 0 -1 l 1
 103 -1 l 1
 103 -377 l 1
 0 -377 l 1
EndSplineSet
EndChar
